<svg xmlns="http://www.w3.org/2000/svg" width="46.852" height="50" viewBox="0 0 46.852 50"><defs><style>.a{fill:#1c279a;}</style></defs><path class="a" d="M11.757,43.6H0V13.48L18.986,0,37.972,13.48V17.1L27.866,9.929,11.757,21.366Zm-8.88-2.877h6V19.881L25.449,8.117,18.986,3.528,2.877,14.966Z"></path><g transform="translate(8.88 13.146)"><path class="a" d="M130.582,173.947H92.61v-7.839h2.877v4.962h32.219V145.313l-8.275-5.875,1.665-2.346,9.486,6.735Z" transform="translate(-92.61 -137.092)"></path></g><g transform="translate(14.536 24.072)"><path class="a" d="M157.119,251.038v4.675h-1v-1.92h-1.714v1.92h-1v-4.675h1v1.92h1.714v-1.92Z" transform="translate(-153.236 -251.038)"></path><path class="a" d="M218.732,254.884v.829h-3.378v-4.675h3.266v.829h-2.269v1h1.857v.835h-1.857v1.178Z" transform="translate(-209.24 -251.038)"></path><path class="a" d="M270.413,251.867H269.06v3.846h-1v-3.846H266.7v-.829h3.709Z" transform="translate(-255.666 -251.038)"></path><path class="a" d="M156.527,332.554h-.879v1.159h-1v-4.675h1.882a1.758,1.758,0,0,1,0,3.516Zm.717-1.758a.855.855,0,0,0-.729-.929h-.866v1.857h.866A.851.851,0,0,0,157.244,330.8Z" transform="translate(-154.352 -321.559)"></path><path class="a" d="M211.717,333.713h-1.072l-.38-.9h-1.589l-.368.9h-1.078l1.926-4.675h.642Zm-1.764-1.726-.48-1.346c-.143.387-.318.91-.48,1.346Z" transform="translate(-201.894 -321.559)"></path><path class="a" d="M276.5,333.713h-1.066l-2.069-3.067v3.067h-1v-4.675h1.06l2.076,3.073v-3.073h1Z" transform="translate(-260.779 -321.559)"></path><path class="a" d="M340.47,333.713h-1.876v-4.675h1.876a2.338,2.338,0,0,1,0,4.675Zm1.284-2.337a1.437,1.437,0,0,0-1.29-1.508h-.873v3.017h.873A1.428,1.428,0,0,0,341.754,331.375Z" transform="translate(-320.662 -321.559)"></path><path class="a" d="M155.243,409.953c0,.916-.8,1.346-1.8,1.346a2.362,2.362,0,0,1-1.851-.879l.7-.692a1.46,1.46,0,0,0,1.153.742c.337-.006.8-.094.8-.517s-.468-.58-.854-.7c-.7-.212-1.558-.561-1.558-1.446,0-.848.8-1.29,1.614-1.29a2.522,2.522,0,0,1,1.845.885l-.673.673a1.646,1.646,0,0,0-1.172-.729c-.3,0-.617.131-.617.467,0,.38.467.536.823.648C154.4,408.688,155.243,409.05,155.243,409.953Z" transform="translate(-151.591 -391.61)"></path><path class="a" d="M213.482,410.483a2.441,2.441,0,0,1-1.839.816,2.39,2.39,0,1,1,0-4.781,2.448,2.448,0,0,1,1.845.823l-.673.673a1.357,1.357,0,0,0-1.172-.667,1.57,1.57,0,0,0,0,3.123,1.467,1.467,0,0,0,1.178-.648Z" transform="translate(-203.716 -391.61)"></path><path class="a" d="M277.108,407.038v4.675h-1v-1.92H274.4v1.92h-1v-4.675h1v1.92h1.714v-1.92Z" transform="translate(-261.719 -392.079)"></path><path class="a" d="M333.591,411.713h-1.072l-.38-.9h-1.59l-.368.9H329.1l1.926-4.675h.642Zm-1.764-1.726-.48-1.346c-.143.387-.318.91-.48,1.346Z" transform="translate(-312.082 -392.079)"></path><path class="a" d="M395.4,410.554h-.879v1.159h-1v-4.675H395.4a1.758,1.758,0,0,1,0,3.516Zm.717-1.758a.855.855,0,0,0-.729-.929h-.866v1.857h.866A.851.851,0,0,0,396.116,408.8Z" transform="translate(-370.319 -392.079)"></path></g></svg>